<mxfile host="app.diagrams.net" modified="2024-01-16T08:28:49.882Z" agent="Mozilla/5.0 (Macintosh; Intel Mac OS X 10_15_7) AppleWebKit/537.36 (KHTML, like Gecko) Chrome/120.0.0.0 Safari/537.36" etag="KVzhtlYSwi5hUyA0r2t0" version="22.1.17" type="device">
  <diagram name="ページ1" id="_E97DYu77A_UUptU-OvN">
    <mxGraphModel dx="724" dy="464" grid="1" gridSize="10" guides="1" tooltips="1" connect="1" arrows="1" fold="1" page="1" pageScale="1" pageWidth="1169" pageHeight="827" math="0" shadow="0">
      <root>
        <mxCell id="0" />
        <mxCell id="1" parent="0" />
        <mxCell id="IYaYj8zb5AmC3muTesAx-5" style="edgeStyle=orthogonalEdgeStyle;rounded=0;orthogonalLoop=1;jettySize=auto;html=1;exitX=1;exitY=0.25;exitDx=0;exitDy=0;entryX=0;entryY=0.25;entryDx=0;entryDy=0;" edge="1" parent="1" source="IYaYj8zb5AmC3muTesAx-1" target="IYaYj8zb5AmC3muTesAx-3">
          <mxGeometry relative="1" as="geometry" />
        </mxCell>
        <mxCell id="IYaYj8zb5AmC3muTesAx-1" value="エンドユーザー&lt;br&gt;LINEアプリ" style="rounded=0;whiteSpace=wrap;html=1;" vertex="1" parent="1">
          <mxGeometry x="280" y="80" width="120" height="80" as="geometry" />
        </mxCell>
        <mxCell id="IYaYj8zb5AmC3muTesAx-6" style="edgeStyle=orthogonalEdgeStyle;rounded=0;orthogonalLoop=1;jettySize=auto;html=1;exitX=0;exitY=0.75;exitDx=0;exitDy=0;entryX=1;entryY=0.75;entryDx=0;entryDy=0;" edge="1" parent="1" source="IYaYj8zb5AmC3muTesAx-3" target="IYaYj8zb5AmC3muTesAx-1">
          <mxGeometry relative="1" as="geometry" />
        </mxCell>
        <mxCell id="IYaYj8zb5AmC3muTesAx-11" style="edgeStyle=orthogonalEdgeStyle;rounded=0;orthogonalLoop=1;jettySize=auto;html=1;exitX=0.75;exitY=1;exitDx=0;exitDy=0;entryX=0.75;entryY=0;entryDx=0;entryDy=0;" edge="1" parent="1" source="IYaYj8zb5AmC3muTesAx-3" target="IYaYj8zb5AmC3muTesAx-9">
          <mxGeometry relative="1" as="geometry" />
        </mxCell>
        <mxCell id="IYaYj8zb5AmC3muTesAx-3" value="LINE&lt;br&gt;プラットフォーム" style="rounded=0;whiteSpace=wrap;html=1;" vertex="1" parent="1">
          <mxGeometry x="520" y="80" width="120" height="80" as="geometry" />
        </mxCell>
        <mxCell id="IYaYj8zb5AmC3muTesAx-7" value="送信" style="text;html=1;strokeColor=none;fillColor=none;align=center;verticalAlign=middle;whiteSpace=wrap;rounded=0;" vertex="1" parent="1">
          <mxGeometry x="430" y="70" width="60" height="30" as="geometry" />
        </mxCell>
        <mxCell id="IYaYj8zb5AmC3muTesAx-8" value="返信" style="text;html=1;strokeColor=none;fillColor=none;align=center;verticalAlign=middle;whiteSpace=wrap;rounded=0;" vertex="1" parent="1">
          <mxGeometry x="430" y="140" width="60" height="30" as="geometry" />
        </mxCell>
        <mxCell id="IYaYj8zb5AmC3muTesAx-12" style="edgeStyle=orthogonalEdgeStyle;rounded=0;orthogonalLoop=1;jettySize=auto;html=1;exitX=0.25;exitY=0;exitDx=0;exitDy=0;entryX=0.25;entryY=1;entryDx=0;entryDy=0;" edge="1" parent="1" source="IYaYj8zb5AmC3muTesAx-9" target="IYaYj8zb5AmC3muTesAx-3">
          <mxGeometry relative="1" as="geometry" />
        </mxCell>
        <mxCell id="IYaYj8zb5AmC3muTesAx-17" style="edgeStyle=orthogonalEdgeStyle;rounded=0;orthogonalLoop=1;jettySize=auto;html=1;exitX=1;exitY=0.25;exitDx=0;exitDy=0;entryX=0;entryY=0.25;entryDx=0;entryDy=0;" edge="1" parent="1" source="IYaYj8zb5AmC3muTesAx-9" target="IYaYj8zb5AmC3muTesAx-16">
          <mxGeometry relative="1" as="geometry" />
        </mxCell>
        <mxCell id="IYaYj8zb5AmC3muTesAx-9" value="Render&lt;br&gt;バックエンド" style="rounded=0;whiteSpace=wrap;html=1;" vertex="1" parent="1">
          <mxGeometry x="520" y="240" width="120" height="80" as="geometry" />
        </mxCell>
        <mxCell id="IYaYj8zb5AmC3muTesAx-13" value="POST&lt;br&gt;リクエスト" style="text;html=1;strokeColor=none;fillColor=none;align=center;verticalAlign=middle;whiteSpace=wrap;rounded=0;" vertex="1" parent="1">
          <mxGeometry x="610" y="170" width="70" height="50" as="geometry" />
        </mxCell>
        <mxCell id="IYaYj8zb5AmC3muTesAx-14" value="レスポンス" style="text;html=1;strokeColor=none;fillColor=none;align=center;verticalAlign=middle;whiteSpace=wrap;rounded=0;" vertex="1" parent="1">
          <mxGeometry x="480" y="170" width="70" height="50" as="geometry" />
        </mxCell>
        <mxCell id="IYaYj8zb5AmC3muTesAx-15" value="Webhook" style="text;html=1;strokeColor=none;fillColor=none;align=center;verticalAlign=middle;whiteSpace=wrap;rounded=0;" vertex="1" parent="1">
          <mxGeometry x="615" y="210" width="60" height="30" as="geometry" />
        </mxCell>
        <mxCell id="IYaYj8zb5AmC3muTesAx-18" style="edgeStyle=orthogonalEdgeStyle;rounded=0;orthogonalLoop=1;jettySize=auto;html=1;exitX=0;exitY=0.75;exitDx=0;exitDy=0;entryX=1;entryY=0.75;entryDx=0;entryDy=0;" edge="1" parent="1" source="IYaYj8zb5AmC3muTesAx-16" target="IYaYj8zb5AmC3muTesAx-9">
          <mxGeometry relative="1" as="geometry" />
        </mxCell>
        <mxCell id="IYaYj8zb5AmC3muTesAx-16" value="ChatGPT API" style="rounded=0;whiteSpace=wrap;html=1;" vertex="1" parent="1">
          <mxGeometry x="760" y="240" width="120" height="80" as="geometry" />
        </mxCell>
        <mxCell id="IYaYj8zb5AmC3muTesAx-19" value="POST&lt;br&gt;リクエスト" style="text;html=1;strokeColor=none;fillColor=none;align=center;verticalAlign=middle;whiteSpace=wrap;rounded=0;" vertex="1" parent="1">
          <mxGeometry x="660" y="230" width="80" height="30" as="geometry" />
        </mxCell>
        <mxCell id="IYaYj8zb5AmC3muTesAx-20" value="レスポンス" style="text;html=1;strokeColor=none;fillColor=none;align=center;verticalAlign=middle;whiteSpace=wrap;rounded=0;" vertex="1" parent="1">
          <mxGeometry x="660" y="300" width="80" height="30" as="geometry" />
        </mxCell>
      </root>
    </mxGraphModel>
  </diagram>
</mxfile>
